# xmcd CD database file
#
# Track frame offsets:
#	150
#	14566
#	30152
#	41950
#	57090
#	76689
#	88932
#	107807
#	122920
#	136138
#	146709
#	162296
#	174177
#	187729
#	200919
#	214862
#	232121
#	246593
#	261371
#	274060
#
# Disc length: 3857 seconds
#
# Revision: 0
# Processed by: cddbd v1.5.2PL0 Copyright (c) Steve Scherf et al.
# Submitted via: CDex 1.51
#
DISCID=240f0f14
DTITLE=Piaf - Edith - La vie en rose 2
DYEAR=1900
DGENRE=Luister
TTITLE0=L'accordéoniste
TTITLE1=Mon légionnaire
TTITLE2=Y'a pas d'printemps
TTITLE3=De l'autre côté d'la rue
TTITLE4=J'm'en fous pas mal
TTITLE5=Le roi a fait battre tambour
TTITLE6=Les trois cloches
TTITLE7=Le noël de la rue
TTITLE8=Télégramma
TTITLE9=La valse de l'amour
TTITLE10=Chanson de Catherine
TTITLE11=Mon ami m'a donné
TTITLE12=Monsieur et madame
TTITLE13=Au bal de la chance
TTITLE14=Notre dame de Paris
TTITLE15=Elle a dit
TTITLE16=Les amants de Venise
TTITLE17=Du matin jusqu'au soir
TTITLE18=Je t'ai dans la peau
TTITLE19=Et ca gueule ca madame
EXTD=
EXTT0=
EXTT1=
EXTT2=
EXTT3=
EXTT4=
EXTT5=
EXTT6=
EXTT7=
EXTT8=
EXTT9=
EXTT10=
EXTT11=
EXTT12=
EXTT13=
EXTT14=
EXTT15=
EXTT16=
EXTT17=
EXTT18=
EXTT19=
PLAYORDER=
